<svg width="144" height="24" viewBox="0 0 144 24" fill="none" xmlns="http://www.w3.org/2000/svg">
<path d="M39.3201 19.2202C38.6288 19.2202 38.0062 19.0971 37.4522 18.8509C36.903 18.5999 36.4673 18.2306 36.1454 17.7429C35.8281 17.2552 35.6695 16.6539 35.6695 15.9389C35.6695 15.3234 35.7832 14.8144 36.0104 14.4119C36.2377 14.0095 36.5478 13.6875 36.9408 13.446C37.3338 13.2045 37.7765 13.0223 38.269 12.8991C38.7661 12.7713 39.2798 12.679 39.8101 12.6222C40.4494 12.5559 40.9678 12.4967 41.3655 12.4446C41.7633 12.3878 42.0521 12.3026 42.232 12.1889C42.4167 12.0705 42.509 11.8883 42.509 11.642V11.5994C42.509 11.0644 42.3504 10.6501 42.0332 10.3565C41.7159 10.063 41.259 9.91619 40.6624 9.91619C40.0327 9.91619 39.5332 10.0535 39.1638 10.3281C38.7993 10.6027 38.553 10.9271 38.4252 11.3011L36.0246 10.9602C36.214 10.2973 36.5265 9.74337 36.9621 9.2983C37.3977 8.84848 37.9304 8.51231 38.5601 8.28977C39.1899 8.0625 39.8859 7.94886 40.6482 7.94886C41.1738 7.94886 41.697 8.01042 42.2178 8.13352C42.7387 8.25663 43.2145 8.46023 43.6454 8.74432C44.0762 9.02367 44.4219 9.40483 44.6823 9.88778C44.9475 10.3707 45.08 10.9744 45.08 11.6989V19H42.6084V17.5014H42.5232C42.367 17.8045 42.1468 18.0885 41.8627 18.3537C41.5833 18.6141 41.2306 18.8248 40.8045 18.9858C40.3831 19.142 39.8883 19.2202 39.3201 19.2202ZM39.9877 17.331C40.5038 17.331 40.9512 17.2292 41.33 17.0256C41.7088 16.8172 42 16.5426 42.2036 16.2017C42.4119 15.8608 42.5161 15.4891 42.5161 15.0866V13.8011C42.4356 13.8674 42.2983 13.929 42.1042 13.9858C41.9148 14.0426 41.7017 14.0923 41.465 14.1349C41.2282 14.1776 40.9939 14.2154 40.7619 14.2486C40.5298 14.2817 40.3286 14.3101 40.1582 14.3338C39.7746 14.3859 39.4314 14.4711 39.1283 14.5895C38.8253 14.7079 38.5862 14.8736 38.411 15.0866C38.2358 15.295 38.1482 15.5649 38.1482 15.8963C38.1482 16.3698 38.321 16.7273 38.6667 16.9688C39.0123 17.2102 39.4527 17.331 39.9877 17.331ZM47.6653 23.0909V8.09091H50.1937V9.89489H50.3428C50.4754 9.62973 50.6624 9.34801 50.9039 9.04972C51.1454 8.74669 51.4721 8.48864 51.884 8.27557C52.2959 8.05777 52.8215 7.94886 53.4607 7.94886C54.3035 7.94886 55.0635 8.1643 55.7405 8.59517C56.4224 9.02131 56.9621 9.65341 57.3599 10.4915C57.7623 11.3248 57.9636 12.3475 57.9636 13.5597C57.9636 14.7576 57.7671 15.7756 57.3741 16.6136C56.9811 17.4517 56.446 18.0909 55.769 18.5312C55.0919 18.9716 54.3248 19.1918 53.4678 19.1918C52.8428 19.1918 52.3244 19.0876 51.9124 18.8793C51.5005 18.6709 51.169 18.42 50.9181 18.1264C50.6719 17.8281 50.4801 17.5464 50.3428 17.2812H50.2363V23.0909H47.6653ZM50.1866 13.5455C50.1866 14.2509 50.286 14.8688 50.4849 15.3991C50.6885 15.9295 50.9797 16.3437 51.3584 16.642C51.742 16.9356 52.206 17.0824 52.7505 17.0824C53.3187 17.0824 53.7945 16.9309 54.178 16.6278C54.5616 16.3201 54.8504 15.901 55.0445 15.3707C55.2434 14.8357 55.3428 14.2273 55.3428 13.5455C55.3428 12.8684 55.2458 12.267 55.0516 11.7415C54.8575 11.2159 54.5687 10.804 54.1851 10.5057C53.8016 10.2074 53.3234 10.0582 52.7505 10.0582C52.2012 10.0582 51.7349 10.2027 51.3513 10.4915C50.9678 10.7803 50.6766 11.1851 50.4778 11.706C50.2836 12.2268 50.1866 12.84 50.1866 13.5455ZM60.1653 23.0909V8.09091H62.6937V9.89489H62.8428C62.9754 9.62973 63.1624 9.34801 63.4039 9.04972C63.6454 8.74669 63.9721 8.48864 64.384 8.27557C64.7959 8.05777 65.3215 7.94886 65.9607 7.94886C66.8035 7.94886 67.5635 8.1643 68.2405 8.59517C68.9224 9.02131 69.4621 9.65341 69.8599 10.4915C70.2623 11.3248 70.4636 12.3475 70.4636 13.5597C70.4636 14.7576 70.2671 15.7756 69.8741 16.6136C69.4811 17.4517 68.946 18.0909 68.269 18.5312C67.5919 18.9716 66.8248 19.1918 65.9678 19.1918C65.3428 19.1918 64.8244 19.0876 64.4124 18.8793C64.0005 18.6709 63.669 18.42 63.4181 18.1264C63.1719 17.8281 62.9801 17.5464 62.8428 17.2812H62.7363V23.0909H60.1653ZM62.6866 13.5455C62.6866 14.2509 62.786 14.8688 62.9849 15.3991C63.1885 15.9295 63.4797 16.3437 63.8584 16.642C64.242 16.9356 64.706 17.0824 65.2505 17.0824C65.8187 17.0824 66.2945 16.9309 66.678 16.6278C67.0616 16.3201 67.3504 15.901 67.5445 15.3707C67.7434 14.8357 67.8428 14.2273 67.8428 13.5455C67.8428 12.8684 67.7458 12.267 67.5516 11.7415C67.3575 11.2159 67.0687 10.804 66.6851 10.5057C66.3016 10.2074 65.8234 10.0582 65.2505 10.0582C64.7012 10.0582 64.2349 10.2027 63.8513 10.4915C63.4678 10.7803 63.1766 11.1851 62.9778 11.706C62.7836 12.2268 62.6866 12.84 62.6866 13.5455ZM75.2363 4.45455V19H72.6653V4.45455H75.2363ZM79.4781 23.0909C79.1277 23.0909 78.8034 23.0625 78.5051 23.0057C78.2115 22.9536 77.9772 22.892 77.802 22.821L78.3986 20.8182C78.7726 20.9271 79.1064 20.9792 79.4 20.9744C79.6936 20.9697 79.9516 20.8774 80.1741 20.6974C80.4014 20.5223 80.5932 20.2287 80.7494 19.8168L80.9696 19.2273L77.0136 8.09091H79.7409L82.2551 16.3295H82.3687L84.89 8.09091H87.6244L83.2565 20.321C83.0529 20.8987 82.783 21.3935 82.4469 21.8054C82.1107 22.2221 81.6988 22.5393 81.2111 22.7571C80.7281 22.9796 80.1505 23.0909 79.4781 23.0909ZM89.5172 19V4.45455H92.0882V9.89489H92.1947C92.3273 9.62973 92.5143 9.34801 92.7558 9.04972C92.9973 8.74669 93.324 8.48864 93.7359 8.27557C94.1479 8.05777 94.6734 7.94886 95.3126 7.94886C96.1554 7.94886 96.9154 8.1643 97.5925 8.59517C98.2743 9.02131 98.8141 9.65341 99.2118 10.4915C99.6142 11.3248 99.8155 12.3475 99.8155 13.5597C99.8155 14.7576 99.619 15.7756 99.226 16.6136C98.833 17.4517 98.298 18.0909 97.6209 18.5312C96.9438 18.9716 96.1767 19.1918 95.3197 19.1918C94.6947 19.1918 94.1763 19.0876 93.7643 18.8793C93.3524 18.6709 93.021 18.42 92.77 18.1264C92.5238 17.8281 92.332 17.5464 92.1947 17.2812H92.0456V19H89.5172ZM92.0385 13.5455C92.0385 14.2509 92.1379 14.8688 92.3368 15.3991C92.5404 15.9295 92.8316 16.3437 93.2104 16.642C93.5939 16.9356 94.0579 17.0824 94.6024 17.0824C95.1706 17.0824 95.6464 16.9309 96.03 16.6278C96.4135 16.3201 96.7023 15.901 96.8964 15.3707C97.0953 14.8357 97.1947 14.2273 97.1947 13.5455C97.1947 12.8684 97.0977 12.267 96.9035 11.7415C96.7094 11.2159 96.4206 10.804 96.0371 10.5057C95.6535 10.2074 95.1753 10.0582 94.6024 10.0582C94.0532 10.0582 93.5868 10.2027 93.2033 10.4915C92.8197 10.7803 92.5285 11.1851 92.3297 11.706C92.1355 12.2268 92.0385 12.84 92.0385 13.5455ZM106.76 19.2131C105.694 19.2131 104.771 18.9787 103.99 18.5099C103.209 18.0412 102.603 17.3854 102.172 16.5426C101.746 15.6998 101.532 14.715 101.532 13.5881C101.532 12.4612 101.746 11.474 102.172 10.6264C102.603 9.77888 103.209 9.12074 103.99 8.65199C104.771 8.18324 105.694 7.94886 106.76 7.94886C107.825 7.94886 108.748 8.18324 109.53 8.65199C110.311 9.12074 110.915 9.77888 111.341 10.6264C111.772 11.474 111.987 12.4612 111.987 13.5881C111.987 14.715 111.772 15.6998 111.341 16.5426C110.915 17.3854 110.311 18.0412 109.53 18.5099C108.748 18.9787 107.825 19.2131 106.76 19.2131ZM106.774 17.1534C107.352 17.1534 107.835 16.9948 108.223 16.6776C108.611 16.3556 108.9 15.9247 109.089 15.3849C109.283 14.8452 109.38 14.2438 109.38 13.581C109.38 12.9134 109.283 12.3097 109.089 11.7699C108.9 11.2254 108.611 10.7921 108.223 10.4702C107.835 10.1482 107.352 9.98722 106.774 9.98722C106.182 9.98722 105.69 10.1482 105.297 10.4702C104.908 10.7921 104.617 11.2254 104.423 11.7699C104.234 12.3097 104.139 12.9134 104.139 13.581C104.139 14.2438 104.234 14.8452 104.423 15.3849C104.617 15.9247 104.908 16.3556 105.297 16.6776C105.69 16.9948 106.182 17.1534 106.774 17.1534ZM119.617 8.09091V10.0795H113.345V8.09091H119.617ZM114.894 5.47727H117.465V15.7188C117.465 16.0644 117.517 16.3295 117.621 16.5142C117.73 16.6941 117.872 16.8172 118.047 16.8835C118.222 16.9498 118.416 16.983 118.629 16.983C118.79 16.983 118.937 16.9711 119.07 16.9474C119.207 16.9238 119.311 16.9025 119.382 16.8835L119.815 18.8935C119.678 18.9408 119.482 18.9929 119.226 19.0497C118.975 19.1065 118.667 19.1397 118.303 19.1491C117.659 19.1681 117.079 19.071 116.563 18.858C116.047 18.6402 115.637 18.304 115.334 17.8494C115.036 17.3949 114.889 16.8267 114.894 16.1449V5.47727ZM123.351 19.1562C122.92 19.1562 122.55 19.0047 122.243 18.7017C121.935 18.3987 121.783 18.0294 121.788 17.5938C121.783 17.1676 121.935 16.803 122.243 16.5C122.55 16.197 122.92 16.0455 123.351 16.0455C123.767 16.0455 124.13 16.197 124.437 16.5C124.75 16.803 124.908 17.1676 124.913 17.5938C124.908 17.8826 124.833 18.1454 124.686 18.3821C124.544 18.6188 124.354 18.8082 124.118 18.9503C123.886 19.0876 123.63 19.1562 123.351 19.1562ZM130.707 19.2202C130.016 19.2202 129.393 19.0971 128.839 18.8509C128.29 18.5999 127.854 18.2306 127.532 17.7429C127.215 17.2552 127.056 16.6539 127.056 15.9389C127.056 15.3234 127.17 14.8144 127.397 14.4119C127.624 14.0095 127.935 13.6875 128.328 13.446C128.721 13.2045 129.163 13.0223 129.656 12.8991C130.153 12.7713 130.667 12.679 131.197 12.6222C131.836 12.5559 132.355 12.4967 132.752 12.4446C133.15 12.3878 133.439 12.3026 133.619 12.1889C133.803 12.0705 133.896 11.8883 133.896 11.642V11.5994C133.896 11.0644 133.737 10.6501 133.42 10.3565C133.103 10.063 132.646 9.91619 132.049 9.91619C131.419 9.91619 130.92 10.0535 130.551 10.3281C130.186 10.6027 129.94 10.9271 129.812 11.3011L127.411 10.9602C127.601 10.2973 127.913 9.74337 128.349 9.2983C128.784 8.84848 129.317 8.51231 129.947 8.28977C130.577 8.0625 131.273 7.94886 132.035 7.94886C132.561 7.94886 133.084 8.01042 133.605 8.13352C134.125 8.25663 134.601 8.46023 135.032 8.74432C135.463 9.02367 135.809 9.40483 136.069 9.88778C136.334 10.3707 136.467 10.9744 136.467 11.6989V19H133.995V17.5014H133.91C133.754 17.8045 133.534 18.0885 133.249 18.3537C132.97 18.6141 132.617 18.8248 132.191 18.9858C131.77 19.142 131.275 19.2202 130.707 19.2202ZM131.374 17.331C131.891 17.331 132.338 17.2292 132.717 17.0256C133.096 16.8172 133.387 16.5426 133.59 16.2017C133.799 15.8608 133.903 15.4891 133.903 15.0866V13.8011C133.822 13.8674 133.685 13.929 133.491 13.9858C133.302 14.0426 133.088 14.0923 132.852 14.1349C132.615 14.1776 132.381 14.2154 132.149 14.2486C131.917 14.2817 131.715 14.3101 131.545 14.3338C131.161 14.3859 130.818 14.4711 130.515 14.5895C130.212 14.7079 129.973 14.8736 129.798 15.0866C129.623 15.295 129.535 15.5649 129.535 15.8963C129.535 16.3698 129.708 16.7273 130.053 16.9688C130.399 17.2102 130.839 17.331 131.374 17.331ZM139.052 19V8.09091H141.623V19H139.052ZM140.345 6.54261C139.937 6.54261 139.587 6.40767 139.293 6.13778C139 5.86316 138.853 5.53409 138.853 5.15057C138.853 4.76231 139 4.43324 139.293 4.16335C139.587 3.88873 139.937 3.75142 140.345 3.75142C140.757 3.75142 141.107 3.88873 141.396 4.16335C141.689 4.43324 141.836 4.76231 141.836 5.15057C141.836 5.53409 141.689 5.86316 141.396 6.13778C141.107 6.40767 140.757 6.54261 140.345 6.54261Z" fill="black"/>
<mask id="mask0_68_793" style="mask-type:alpha" maskUnits="userSpaceOnUse" x="0" y="0" width="25" height="24">
<rect x="0.859863" width="24" height="24" rx="6" fill="white"/>
</mask>
<g mask="url(#mask0_68_793)">
<path fill-rule="evenodd" clip-rule="evenodd" d="M32.8599 -8H6.96513V7.10526H-8.14014V33H17.7546V17.8947H32.8599V-8ZM17.7546 17.8947V7.10526H6.96513V17.8947H17.7546Z" fill="#38D483"/>
</g>
</svg>
