<svg width="143" height="24" viewBox="0 0 143 24" fill="none" xmlns="http://www.w3.org/2000/svg">
<path d="M38.4602 19.2202C37.7689 19.2202 37.1463 19.0971 36.5923 18.8509C36.0431 18.5999 35.6075 18.2306 35.2855 17.7429C34.9683 17.2552 34.8097 16.6539 34.8097 15.9389C34.8097 15.3234 34.9233 14.8144 35.1506 14.4119C35.3778 14.0095 35.688 13.6875 36.081 13.446C36.474 13.2045 36.9167 13.0223 37.4091 12.8991C37.9063 12.7713 38.42 12.679 38.9503 12.6222C39.5895 12.5559 40.108 12.4967 40.5057 12.4446C40.9034 12.3878 41.1922 12.3026 41.3722 12.1889C41.5568 12.0705 41.6491 11.8883 41.6491 11.642V11.5994C41.6491 11.0644 41.4905 10.6501 41.1733 10.3565C40.8561 10.063 40.3991 9.91619 39.8026 9.91619C39.1728 9.91619 38.6733 10.0535 38.304 10.3281C37.9394 10.6027 37.6932 10.9271 37.5653 11.3011L35.1648 10.9602C35.3542 10.2973 35.6667 9.74337 36.1023 9.2983C36.5379 8.84848 37.0705 8.51231 37.7003 8.28977C38.33 8.0625 39.026 7.94886 39.7884 7.94886C40.3139 7.94886 40.8371 8.01042 41.358 8.13352C41.8788 8.25663 42.3546 8.46023 42.7855 8.74432C43.2164 9.02367 43.562 9.40483 43.8224 9.88778C44.0876 10.3707 44.2202 10.9744 44.2202 11.6989V19H41.7486V17.5014H41.6634C41.5071 17.8045 41.2869 18.0885 41.0028 18.3537C40.7235 18.6141 40.3707 18.8248 39.9446 18.9858C39.5232 19.142 39.0284 19.2202 38.4602 19.2202ZM39.1278 17.331C39.6439 17.331 40.0914 17.2292 40.4702 17.0256C40.849 16.8172 41.1402 16.5426 41.3438 16.2017C41.5521 15.8608 41.6562 15.4891 41.6562 15.0866V13.8011C41.5758 13.8674 41.4384 13.929 41.2443 13.9858C41.0549 14.0426 40.8419 14.0923 40.6051 14.1349C40.3684 14.1776 40.134 14.2154 39.902 14.2486C39.67 14.2817 39.4688 14.3101 39.2983 14.3338C38.9148 14.3859 38.5715 14.4711 38.2685 14.5895C37.9654 14.7079 37.7263 14.8736 37.5511 15.0866C37.3759 15.295 37.2884 15.5649 37.2884 15.8963C37.2884 16.3698 37.4612 16.7273 37.8068 16.9688C38.1525 17.2102 38.5928 17.331 39.1278 17.331ZM46.8054 23.0909V8.09091H49.3338V9.89489H49.483C49.6155 9.62973 49.8026 9.34801 50.044 9.04972C50.2855 8.74669 50.6122 8.48864 51.0241 8.27557C51.4361 8.05777 51.9616 7.94886 52.6009 7.94886C53.4437 7.94886 54.2036 8.1643 54.8807 8.59517C55.5625 9.02131 56.1023 9.65341 56.5 10.4915C56.9025 11.3248 57.1037 12.3475 57.1037 13.5597C57.1037 14.7576 56.9072 15.7756 56.5142 16.6136C56.1212 17.4517 55.5862 18.0909 54.9091 18.5312C54.232 18.9716 53.465 19.1918 52.608 19.1918C51.983 19.1918 51.4645 19.0876 51.0526 18.8793C50.6406 18.6709 50.3092 18.42 50.0582 18.1264C49.812 17.8281 49.6203 17.5464 49.483 17.2812H49.3764V23.0909H46.8054ZM49.3267 13.5455C49.3267 14.2509 49.4261 14.8688 49.625 15.3991C49.8286 15.9295 50.1198 16.3437 50.4986 16.642C50.8821 16.9356 51.3461 17.0824 51.8906 17.0824C52.4588 17.0824 52.9347 16.9309 53.3182 16.6278C53.7017 16.3201 53.9905 15.901 54.1847 15.3707C54.3835 14.8357 54.483 14.2273 54.483 13.5455C54.483 12.8684 54.3859 12.267 54.1918 11.7415C53.9976 11.2159 53.7088 10.804 53.3253 10.5057C52.9418 10.2074 52.4635 10.0582 51.8906 10.0582C51.3414 10.0582 50.875 10.2027 50.4915 10.4915C50.108 10.7803 49.8168 11.1851 49.6179 11.706C49.4238 12.2268 49.3267 12.84 49.3267 13.5455ZM59.3054 23.0909V8.09091H61.8338V9.89489H61.983C62.1155 9.62973 62.3026 9.34801 62.544 9.04972C62.7855 8.74669 63.1122 8.48864 63.5241 8.27557C63.9361 8.05777 64.4616 7.94886 65.1009 7.94886C65.9437 7.94886 66.7036 8.1643 67.3807 8.59517C68.0625 9.02131 68.6023 9.65341 69 10.4915C69.4025 11.3248 69.6037 12.3475 69.6037 13.5597C69.6037 14.7576 69.4072 15.7756 69.0142 16.6136C68.6212 17.4517 68.0862 18.0909 67.4091 18.5312C66.732 18.9716 65.965 19.1918 65.108 19.1918C64.483 19.1918 63.9645 19.0876 63.5526 18.8793C63.1406 18.6709 62.8092 18.42 62.5582 18.1264C62.312 17.8281 62.1203 17.5464 61.983 17.2812H61.8764V23.0909H59.3054ZM61.8267 13.5455C61.8267 14.2509 61.9261 14.8688 62.125 15.3991C62.3286 15.9295 62.6198 16.3437 62.9986 16.642C63.3821 16.9356 63.8461 17.0824 64.3906 17.0824C64.9588 17.0824 65.4347 16.9309 65.8182 16.6278C66.2017 16.3201 66.4905 15.901 66.6847 15.3707C66.8835 14.8357 66.983 14.2273 66.983 13.5455C66.983 12.8684 66.8859 12.267 66.6918 11.7415C66.4976 11.2159 66.2088 10.804 65.8253 10.5057C65.4418 10.2074 64.9635 10.0582 64.3906 10.0582C63.8414 10.0582 63.375 10.2027 62.9915 10.4915C62.608 10.7803 62.3168 11.1851 62.1179 11.706C61.9238 12.2268 61.8267 12.84 61.8267 13.5455ZM74.3764 4.45455V19H71.8054V4.45455H74.3764ZM78.6183 23.0909C78.2679 23.0909 77.9435 23.0625 77.6452 23.0057C77.3517 22.9536 77.1173 22.892 76.9421 22.821L77.5387 20.8182C77.9128 20.9271 78.2466 20.9792 78.5401 20.9744C78.8337 20.9697 79.0917 20.8774 79.3143 20.6974C79.5415 20.5223 79.7333 20.2287 79.8896 19.8168L80.1097 19.2273L76.1538 8.09091H78.881L81.3952 16.3295H81.5089L84.0302 8.09091H86.7646L82.3967 20.321C82.1931 20.8987 81.9232 21.3935 81.587 21.8054C81.2508 22.2221 80.8389 22.5393 80.3512 22.7571C79.8683 22.9796 79.2906 23.0909 78.6183 23.0909ZM88.6573 19V4.45455H91.2283V9.89489H91.3349C91.4674 9.62973 91.6545 9.34801 91.896 9.04972C92.1374 8.74669 92.4641 8.48864 92.8761 8.27557C93.288 8.05777 93.8136 7.94886 94.4528 7.94886C95.2956 7.94886 96.0555 8.1643 96.7326 8.59517C97.4144 9.02131 97.9542 9.65341 98.3519 10.4915C98.7544 11.3248 98.9556 12.3475 98.9556 13.5597C98.9556 14.7576 98.7591 15.7756 98.3661 16.6136C97.9731 17.4517 97.4381 18.0909 96.761 18.5312C96.0839 18.9716 95.3169 19.1918 94.4599 19.1918C93.8349 19.1918 93.3164 19.0876 92.9045 18.8793C92.4925 18.6709 92.1611 18.42 91.9102 18.1264C91.6639 17.8281 91.4722 17.5464 91.3349 17.2812H91.1857V19H88.6573ZM91.1786 13.5455C91.1786 14.2509 91.2781 14.8688 91.4769 15.3991C91.6805 15.9295 91.9717 16.3437 92.3505 16.642C92.734 16.9356 93.198 17.0824 93.7425 17.0824C94.3107 17.0824 94.7866 16.9309 95.1701 16.6278C95.5536 16.3201 95.8424 15.901 96.0366 15.3707C96.2354 14.8357 96.3349 14.2273 96.3349 13.5455C96.3349 12.8684 96.2378 12.267 96.0437 11.7415C95.8496 11.2159 95.5607 10.804 95.1772 10.5057C94.7937 10.2074 94.3155 10.0582 93.7425 10.0582C93.1933 10.0582 92.7269 10.2027 92.3434 10.4915C91.9599 10.7803 91.6687 11.1851 91.4698 11.706C91.2757 12.2268 91.1786 12.84 91.1786 13.5455ZM105.9 19.2131C104.835 19.2131 103.911 18.9787 103.13 18.5099C102.349 18.0412 101.743 17.3854 101.312 16.5426C100.886 15.6998 100.673 14.715 100.673 13.5881C100.673 12.4612 100.886 11.474 101.312 10.6264C101.743 9.77888 102.349 9.12074 103.13 8.65199C103.911 8.18324 104.835 7.94886 105.9 7.94886C106.965 7.94886 107.888 8.18324 108.67 8.65199C109.451 9.12074 110.055 9.77888 110.481 10.6264C110.912 11.474 111.127 12.4612 111.127 13.5881C111.127 14.715 110.912 15.6998 110.481 16.5426C110.055 17.3854 109.451 18.0412 108.67 18.5099C107.888 18.9787 106.965 19.2131 105.9 19.2131ZM105.914 17.1534C106.492 17.1534 106.975 16.9948 107.363 16.6776C107.751 16.3556 108.04 15.9247 108.229 15.3849C108.424 14.8452 108.521 14.2438 108.521 13.581C108.521 12.9134 108.424 12.3097 108.229 11.7699C108.04 11.2254 107.751 10.7921 107.363 10.4702C106.975 10.1482 106.492 9.98722 105.914 9.98722C105.322 9.98722 104.83 10.1482 104.437 10.4702C104.049 10.7921 103.757 11.2254 103.563 11.7699C103.374 12.3097 103.279 12.9134 103.279 13.581C103.279 14.2438 103.374 14.8452 103.563 15.3849C103.757 15.9247 104.049 16.3556 104.437 16.6776C104.83 16.9948 105.322 17.1534 105.914 17.1534ZM118.757 8.09091V10.0795H112.485V8.09091H118.757ZM114.034 5.47727H116.605V15.7188C116.605 16.0644 116.657 16.3295 116.761 16.5142C116.87 16.6941 117.012 16.8172 117.187 16.8835C117.362 16.9498 117.556 16.983 117.77 16.983C117.931 16.983 118.077 16.9711 118.21 16.9474C118.347 16.9238 118.451 16.9025 118.522 16.8835L118.956 18.8935C118.818 18.9408 118.622 18.9929 118.366 19.0497C118.115 19.1065 117.807 19.1397 117.443 19.1491C116.799 19.1681 116.219 19.071 115.703 18.858C115.187 18.6402 114.777 18.304 114.474 17.8494C114.176 17.3949 114.029 16.8267 114.034 16.1449V5.47727ZM122.491 19.1562C122.06 19.1562 121.691 19.0047 121.383 18.7017C121.075 18.3987 120.924 18.0294 120.928 17.5938C120.924 17.1676 121.075 16.803 121.383 16.5C121.691 16.197 122.06 16.0455 122.491 16.0455C122.907 16.0455 123.27 16.197 123.577 16.5C123.89 16.803 124.049 17.1676 124.053 17.5938C124.049 17.8826 123.973 18.1454 123.826 18.3821C123.684 18.6188 123.495 18.8082 123.258 18.9503C123.026 19.0876 122.77 19.1562 122.491 19.1562ZM129.847 19.2202C129.156 19.2202 128.533 19.0971 127.979 18.8509C127.43 18.5999 126.994 18.2306 126.672 17.7429C126.355 17.2552 126.196 16.6539 126.196 15.9389C126.196 15.3234 126.31 14.8144 126.537 14.4119C126.765 14.0095 127.075 13.6875 127.468 13.446C127.861 13.2045 128.303 13.0223 128.796 12.8991C129.293 12.7713 129.807 12.679 130.337 12.6222C130.976 12.5559 131.495 12.4967 131.892 12.4446C132.29 12.3878 132.579 12.3026 132.759 12.1889C132.944 12.0705 133.036 11.8883 133.036 11.642V11.5994C133.036 11.0644 132.877 10.6501 132.56 10.3565C132.243 10.063 131.786 9.91619 131.189 9.91619C130.56 9.91619 130.06 10.0535 129.691 10.3281C129.326 10.6027 129.08 10.9271 128.952 11.3011L126.551 10.9602C126.741 10.2973 127.053 9.74337 127.489 9.2983C127.925 8.84848 128.457 8.51231 129.087 8.28977C129.717 8.0625 130.413 7.94886 131.175 7.94886C131.701 7.94886 132.224 8.01042 132.745 8.13352C133.266 8.25663 133.741 8.46023 134.172 8.74432C134.603 9.02367 134.949 9.40483 135.209 9.88778C135.474 10.3707 135.607 10.9744 135.607 11.6989V19H133.135V17.5014H133.05C132.894 17.8045 132.674 18.0885 132.39 18.3537C132.11 18.6141 131.757 18.8248 131.331 18.9858C130.91 19.142 130.415 19.2202 129.847 19.2202ZM130.515 17.331C131.031 17.331 131.478 17.2292 131.857 17.0256C132.236 16.8172 132.527 16.5426 132.73 16.2017C132.939 15.8608 133.043 15.4891 133.043 15.0866V13.8011C132.962 13.8674 132.825 13.929 132.631 13.9858C132.442 14.0426 132.229 14.0923 131.992 14.1349C131.755 14.1776 131.521 14.2154 131.289 14.2486C131.057 14.2817 130.855 14.3101 130.685 14.3338C130.301 14.3859 129.958 14.4711 129.655 14.5895C129.352 14.7079 129.113 14.8736 128.938 15.0866C128.763 15.295 128.675 15.5649 128.675 15.8963C128.675 16.3698 128.848 16.7273 129.194 16.9688C129.539 17.2102 129.98 17.331 130.515 17.331ZM138.192 19V8.09091H140.763V19H138.192ZM139.485 6.54261C139.078 6.54261 138.727 6.40767 138.434 6.13778C138.14 5.86316 137.993 5.53409 137.993 5.15057C137.993 4.76231 138.14 4.43324 138.434 4.16335C138.727 3.88873 139.078 3.75142 139.485 3.75142C139.897 3.75142 140.247 3.88873 140.536 4.16335C140.829 4.43324 140.976 4.76231 140.976 5.15057C140.976 5.53409 140.829 5.86316 140.536 6.13778C140.247 6.40767 139.897 6.54261 139.485 6.54261Z" fill="white"/>
<mask id="mask0_68_959" style="mask-type:alpha" maskUnits="userSpaceOnUse" x="0" y="0" width="24" height="24">
<rect width="24" height="24" rx="6" fill="white"/>
</mask>
<g mask="url(#mask0_68_959)">
<path fill-rule="evenodd" clip-rule="evenodd" d="M32 -8H6.10526V7.10526H-9V33H16.8947V17.8947H32V-8ZM16.8947 17.8947V7.10526H6.10526V17.8947H16.8947Z" fill="white"/>
</g>
</svg>
